<svg id="Layer_1" data-name="Layer 1" xmlns="http://www.w3.org/2000/svg" xmlns:xlink="http://www.w3.org/1999/xlink" viewBox="0 0 44 44"><defs><style>.Graphic-Style-4{fill:url(#linear-gradient);}</style><linearGradient id="linear-gradient" x1="4.31" y1="22.21" x2="39.93" y2="22.21" gradientUnits="userSpaceOnUse"><stop offset="0" stop-color="#6ed344"/><stop offset="1" stop-color="#6fbb9b"/></linearGradient></defs><title>Icons</title><path class="Graphic-Style-4" d="M39.16,16.93H36.55a0.77,0.77,0,0,0-.53.21l-0.56.53a27.8,27.8,0,0,0-4.11-6.55,5.14,5.14,0,0,0-4-1.89H16.89a5.14,5.14,0,0,0-4,1.89,27.17,27.17,0,0,0-4.12,6.55l-0.55-.53a0.77,0.77,0,0,0-.53-0.21H5.08a0.77,0.77,0,0,0-.77.77v1.79a0.77,0.77,0,0,0,.72.77l2.69,0.17A17.13,17.13,0,0,0,7,25.87a7,7,0,0,0,1.18,4.5v4.16a0.65,0.65,0,0,0,.65.65h3a0.65,0.65,0,0,0,.65-0.65V32H31.8v2.58a0.65,0.65,0,0,0,.65.65h3a0.65,0.65,0,0,0,.65-0.65V30.38a7,7,0,0,0,1.18-4.5,17.12,17.12,0,0,0-.72-5.44l2.69-.17a0.77,0.77,0,0,0,.72-0.77V17.7a0.77,0.77,0,0,0-.77-0.77h0Zm-24.06-4a2.3,2.3,0,0,1,1.79-.85H27.35a2.3,2.3,0,0,1,1.79.85,26.91,26.91,0,0,1,3.06,4.53H12a27.06,27.06,0,0,1,3.08-4.54h0ZM12.9,28.79c-1.48,0-2.68-.48-2.68-1.66S10.66,25,12.14,25s3.44,1,3.44,2.12-1.2,1.66-2.68,1.66h0Zm12-.24H19.31A1.54,1.54,0,0,1,17.78,27a0.43,0.43,0,0,1,.43-0.43H26a0.43,0.43,0,0,1,.43.43,1.54,1.54,0,0,1-1.54,1.54h0Zm6.41,0.24c-1.48,0-2.68-.48-2.68-1.66S30.62,25,32.1,25,34,26,34,27.14s-1.2,1.66-2.68,1.66h0Zm0,0"/></svg>