<svg id="Слой_1" data-name="Слой 1" xmlns="http://www.w3.org/2000/svg" viewBox="0 0 32 32"><title>watch</title><path d="M16,.88a10.31,10.31,0,0,1,10.31,9.47,16.41,16.41,0,0,1-1.86,8.34,51.56,51.56,0,0,1-8.15,12.16c-.19.23-.33.44-.63.08-3.73-4.38-7.1-9-9.08-14.46A12.83,12.83,0,0,1,6,8.54,10.31,10.31,0,0,1,16,.88ZM6.43,11.27a18.69,18.69,0,0,0,1.88,7.22,54,54,0,0,0,7.36,11.16c.23.28.4.26.61,0,.47-.56.95-1.11,1.4-1.69a44.75,44.75,0,0,0,6.66-11,13.63,13.63,0,0,0,1.11-7.4,9.59,9.59,0,0,0-19,1.71Z"/><path d="M16,31.62a.9.9,0,0,1-.67-.37c-3.33-3.91-7-8.7-9.17-14.61A13.1,13.1,0,0,1,5.5,8.41,10.82,10.82,0,0,1,16,.38h0a10.8,10.8,0,0,1,10.8,9.92,17,17,0,0,1-1.91,8.6,51.48,51.48,0,0,1-8.22,12.28,1,1,0,0,1-.72.44Zm-.13-1.27.12.14.13-.15-.14,0h-.11ZM6.93,11.27a18.12,18.12,0,0,0,1.83,7,52,52,0,0,0,7.22,11l.43-.52c.3-.35.59-.7.87-1.07a44.24,44.24,0,0,0,6.59-10.88A13.21,13.21,0,0,0,25,9.64a9.09,9.09,0,0,0-18,1.63Z"/><path d="M11.25,11.27A4.72,4.72,0,0,1,16,6.45a4.81,4.81,0,1,1,0,9.61A4.68,4.68,0,0,1,11.25,11.27Zm4.79-4a4,4,0,0,0-4,3.92,4,4,0,0,0,8,.12A4,4,0,0,0,16,7.27Z"/><path d="M16.07,16.56H16a5.37,5.37,0,0,1-3.86-1.65,5,5,0,0,1-1.38-3.65,5.35,5.35,0,0,1,1.5-3.76A5.16,5.16,0,0,1,16,6h0a5.31,5.31,0,0,1,5.33,5.26A5.24,5.24,0,0,1,19.77,15,5.18,5.18,0,0,1,16.07,16.56ZM16,7.77a3.49,3.49,0,0,0,0,7h0a3.62,3.62,0,0,0,2.52-1.09,3.33,3.33,0,0,0,1-2.35A3.49,3.49,0,0,0,16,7.77Z"/></svg>