<svg id="Слой_1" data-name="Слой 1" xmlns="http://www.w3.org/2000/svg" viewBox="0 0 22.54 31.99"><title>Без названия</title><path d="M16,.88a10.31,10.31,0,0,1,10.31,9.47,16.41,16.41,0,0,1-1.86,8.34,51.56,51.56,0,0,1-8.15,12.16c-.19.23-.33.44-.63.08-3.73-4.38-7.1-9-9.08-14.46A12.83,12.83,0,0,1,6,8.54,10.31,10.31,0,0,1,16,.88ZM6.43,11.27a18.69,18.69,0,0,0,1.88,7.22,54,54,0,0,0,7.36,11.16c.23.28.4.26.61,0,.47-.56.95-1.11,1.4-1.69a44.75,44.75,0,0,0,6.66-11,13.63,13.63,0,0,0,1.11-7.4,9.59,9.59,0,0,0-19,1.71Z" transform="translate(-4.73 0)"/><path d="M16,31.62a.9.9,0,0,1-.67-.37c-3.33-3.91-7-8.7-9.17-14.61A13.1,13.1,0,0,1,5.5,8.41,10.82,10.82,0,0,1,16,.38h0a10.8,10.8,0,0,1,10.8,9.92,17,17,0,0,1-1.91,8.6,51.48,51.48,0,0,1-8.22,12.28,1,1,0,0,1-.72.44Zm-.13-1.27.12.14.13-.15-.14,0h-.11ZM6.93,11.27a18.12,18.12,0,0,0,1.83,7,52,52,0,0,0,7.22,11l.43-.52c.3-.35.59-.7.87-1.07a44.24,44.24,0,0,0,6.59-10.88A13.21,13.21,0,0,0,25,9.64a9.09,9.09,0,0,0-18,1.63Z" transform="translate(-4.73 0)"/><path d="M16,32h0a1.24,1.24,0,0,1-1-.51C11.69,27.56,8,22.74,5.81,16.77a13.46,13.46,0,0,1-.67-8.46,11.26,11.26,0,0,1,22.08,2,17.26,17.26,0,0,1-1.94,8.78A51.24,51.24,0,0,1,17,31.42,1.3,1.3,0,0,1,16,32ZM16,.75A10.46,10.46,0,0,0,5.86,8.51a12.81,12.81,0,0,0,.65,8c2.13,5.86,5.79,10.62,9.1,14.5a.57.57,0,0,0,.39.24c.15,0,.25-.1.43-.32A50.6,50.6,0,0,0,24.6,18.74a16.62,16.62,0,0,0,1.87-8.4A10.43,10.43,0,0,0,16,.75ZM16,31l-.43-.41L15,29.84,16,30,17,29.77ZM16,29.82l-.28-.35a52.1,52.1,0,0,1-7.27-11,18.72,18.72,0,0,1-1.87-7.16h0A9.46,9.46,0,0,1,25.32,9.58a13.44,13.44,0,0,1-1.1,7.33,44.58,44.58,0,0,1-6.64,11c-.27.35-.55.69-.83,1ZM7.3,11.27a18,18,0,0,0,1.8,6.84A51.1,51.1,0,0,0,16,28.65l.14-.17c.33-.39.6-.72.87-1.06a44,44,0,0,0,6.53-10.78,12.85,12.85,0,0,0,1.07-6.93A8.72,8.72,0,0,0,7.3,11.27Z" transform="translate(-4.73 0)"/><path d="M11.25,11.27A4.72,4.72,0,0,1,16,6.45a4.81,4.81,0,1,1,0,9.61A4.68,4.68,0,0,1,11.25,11.27Zm4.79-4a4,4,0,0,0-4,3.92,4,4,0,0,0,8,.12A4,4,0,0,0,16,7.27Z" transform="translate(-4.73 0)"/><path d="M16.07,16.31H16a5.12,5.12,0,0,1-3.68-1.57A4.8,4.8,0,0,1,11,11.26a5,5,0,0,1,1.43-3.58A4.9,4.9,0,0,1,16,6.2h0a5,5,0,0,1,5.08,5,4.93,4.93,0,0,1-1.47,3.58A4.89,4.89,0,0,1,16.07,16.31ZM16,6.7h0A4.37,4.37,0,0,0,12.79,8a4.52,4.52,0,0,0-1.29,3.24h0a4.22,4.22,0,0,0,1.18,3.11A4.57,4.57,0,0,0,16,15.81a4.59,4.59,0,0,0,4.56-4.57A4.52,4.52,0,0,0,16,6.7Zm0,8.8h0A4.24,4.24,0,1,1,16,7h0a4.27,4.27,0,0,1,4.24,4.28,4.06,4.06,0,0,1-1.22,2.89A4.37,4.37,0,0,1,16,15.5Zm0-8A3.74,3.74,0,0,0,16,15h0a3.86,3.86,0,0,0,2.69-1.16,3.6,3.6,0,0,0,1.08-2.53A3.77,3.77,0,0,0,16,7.52Z" transform="translate(-4.73 0)"/><path d="M16.07,16.56H16a5.37,5.37,0,0,1-3.86-1.65,5,5,0,0,1-1.38-3.65,5.35,5.35,0,0,1,1.5-3.76A5.16,5.16,0,0,1,16,6h0a5.31,5.31,0,0,1,5.33,5.26A5.24,5.24,0,0,1,19.77,15,5.18,5.18,0,0,1,16.07,16.56ZM16,7.77a3.49,3.49,0,0,0,0,7h0a3.62,3.62,0,0,0,2.52-1.09,3.33,3.33,0,0,0,1-2.35A3.49,3.49,0,0,0,16,7.77Z" transform="translate(-4.73 0)"/><path d="M16.07,16.81H16a5.58,5.58,0,0,1-4-1.73,5.27,5.27,0,0,1-1.45-3.83,5.54,5.54,0,0,1,1.57-3.92A5.37,5.37,0,0,1,16,5.7a5.56,5.56,0,0,1,5.6,5.5,5.58,5.58,0,0,1-5.49,5.61ZM16,6.2a4.91,4.91,0,0,0-3.55,1.48A5,5,0,0,0,11,11.26a4.78,4.78,0,0,0,1.31,3.48A5.12,5.12,0,0,0,16,16.31h.08a4.89,4.89,0,0,0,3.52-1.51,4.93,4.93,0,0,0,1.47-3.58A5.07,5.07,0,0,0,16,6.2ZM16,15a3.74,3.74,0,1,1,0-7.48h0a3.74,3.74,0,0,1,3.75,3.79,3.63,3.63,0,0,1-1.07,2.53A3.9,3.9,0,0,1,16,15Zm0-7.23V8a3.22,3.22,0,0,0-2.32,5.5,3.3,3.3,0,0,0,2.29,1,3.33,3.33,0,0,0,2.36-1,3.05,3.05,0,0,0,.93-2.16A3.24,3.24,0,0,0,16,8Z" transform="translate(-4.73 0)"/></svg>