<svg id="Layer_1" data-name="Layer 1" xmlns="http://www.w3.org/2000/svg" xmlns:xlink="http://www.w3.org/1999/xlink" viewBox="0 0 44 44"><defs><style>.Graphic-Style-4{fill:url(#linear-gradient);}</style><linearGradient id="linear-gradient" x1="11.34" y1="21.56" x2="34.97" y2="21.56" gradientUnits="userSpaceOnUse"><stop offset="0" stop-color="#6ed344"/><stop offset="1" stop-color="#6fbb9b"/></linearGradient></defs><title>Icons</title><path class="Graphic-Style-4" d="M34.39,22.14A1.89,1.89,0,0,0,33,21.56H17.9V15a5.25,5.25,0,0,1,5.25-5.25A5.25,5.25,0,0,1,28.4,15a1.33,1.33,0,0,0,1.31,1.31H31A1.33,1.33,0,0,0,32.34,15a8.85,8.85,0,0,0-2.7-6.49,8.85,8.85,0,0,0-6.49-2.7,8.85,8.85,0,0,0-6.49,2.7A8.85,8.85,0,0,0,14,15v6.56H13.31a2,2,0,0,0-2,2V35.34a2,2,0,0,0,2,2H33a2,2,0,0,0,2-2V23.53a1.89,1.89,0,0,0-.58-1.39h0Zm0,0"/></svg>