<svg id="Layer_1" data-name="Layer 1" xmlns="http://www.w3.org/2000/svg" viewBox="0 0 26 26"><defs><style>.cls-1{fill:#939393;}</style></defs><title>Icons</title><path class="cls-1" d="M24.25,19.92A2.74,2.74,0,0,0,23,19.07l-0.86-.48-1-.56-0.86-.5-0.4-.28a4.45,4.45,0,0,0-.57-0.34,1,1,0,0,0-.46-0.11,1.33,1.33,0,0,0-.8.46,7.82,7.82,0,0,0-.88,1,9.63,9.63,0,0,1-.85,1,1.22,1.22,0,0,1-.74.46,1.1,1.1,0,0,1-.36-0.08l-0.33-.14-0.38-.22-0.3-.18a16.8,16.8,0,0,1-3.76-2.79,16.8,16.8,0,0,1-2.79-3.76l-0.18-.3C7.38,12,7.31,11.91,7.27,11.83s-0.08-.18-0.14-0.33a1.1,1.1,0,0,1-.08-0.36,1.22,1.22,0,0,1,.46-0.74,9.74,9.74,0,0,1,1-.85,7.85,7.85,0,0,0,1-.88A1.33,1.33,0,0,0,10,7.88a1,1,0,0,0-.11-0.46A4.41,4.41,0,0,0,9.5,6.85l-0.28-.4L8.72,5.6l-0.56-1L7.68,3.71A2.75,2.75,0,0,0,6.83,2.5a0.9,0.9,0,0,0-.34,0,5.3,5.3,0,0,0-1.13.16,6.35,6.35,0,0,0-1.1.34,4.29,4.29,0,0,0-1.7,2,6.21,6.21,0,0,0-.82,3,6.15,6.15,0,0,0,.06.84,6.93,6.93,0,0,0,.2.92q0.14,0.51.23,0.76l0.33,0.89q0.24,0.64.29,0.79a14.56,14.56,0,0,0,1.33,2.8,23.73,23.73,0,0,0,3.45,4.24,23.77,23.77,0,0,0,4.24,3.45,14.48,14.48,0,0,0,2.8,1.33l0.79,0.29,0.89,0.33,0.76,0.23a7,7,0,0,0,.92.2,6.12,6.12,0,0,0,.84.06,6.21,6.21,0,0,0,3-.82,4.29,4.29,0,0,0,2-1.7,6.34,6.34,0,0,0,.34-1.1,5.3,5.3,0,0,0,.16-1.13,0.89,0.89,0,0,0,0-.34h0Zm0,0"/></svg>