<svg id="Layer_1" data-name="Layer 1" xmlns="http://www.w3.org/2000/svg" xmlns:xlink="http://www.w3.org/1999/xlink" viewBox="0 0 34 34"><defs><style>.Graphic-Style-4{fill:url(#linear-gradient);}</style><linearGradient id="linear-gradient" x1="2.65" y1="16.56" x2="30.09" y2="16.56" gradientUnits="userSpaceOnUse"><stop offset="0" stop-color="#6ed344"/><stop offset="1" stop-color="#6fbb9b"/></linearGradient></defs><title>Icons</title><path class="Graphic-Style-4" d="M16.37,2.84A13.72,13.72,0,1,0,30.09,16.56,13.72,13.72,0,0,0,16.37,2.84h0ZM9.79,23.11L13,17.88a10.3,10.3,0,0,0,2,2Zm12.86-8.55a1.51,1.51,0,0,1-1.58.16l-1.74,1.74c0.87,1.42,1.08,2.8.4,3.49a1.54,1.54,0,0,1-1.13.41,5.38,5.38,0,0,1-3-1.24l-0.07-.05-0.22-.18-0.09-.07L15,18.61l-0.08-.07-0.28-.27-0.31-.33-0.18-.2L14,17.62l-0.22-.28,0,0C12.57,15.68,12.17,14,13,13.18a1.55,1.55,0,0,1,1.13-.41,4.76,4.76,0,0,1,2.36.81l1.74-1.74a1.51,1.51,0,0,1,.16-1.58c0.65-.65,2.14-0.21,3.32,1s1.63,2.68,1,3.33h0Zm0,0"/></svg>