<svg id="Layer_1" data-name="Layer 1" xmlns="http://www.w3.org/2000/svg" xmlns:xlink="http://www.w3.org/1999/xlink" viewBox="0 0 44 44"><defs><style>.cls-1{fill:url(#linear-gradient);}.cls-2{fill:url(#linear-gradient-6);}.cls-3{fill:url(#linear-gradient-8);}.cls-4{fill:url(#linear-gradient-9);}.Graphic-Style-4{fill:url(#linear-gradient-11);}</style><linearGradient id="linear-gradient" x1="5.5" y1="21.83" x2="35.37" y2="21.83" gradientTransform="translate(2)" gradientUnits="userSpaceOnUse"><stop offset="0" stop-color="#6ed344"/><stop offset="1" stop-color="#6fbb9b"/></linearGradient><linearGradient id="linear-gradient-6" x1="7.5" y1="20.95" x2="37.37" y2="20.95" gradientTransform="matrix(1, 0, 0, 1, 0, 0)" xlink:href="#linear-gradient"/><linearGradient id="linear-gradient-8" x1="7.5" y1="21.83" x2="37.37" y2="21.83" gradientTransform="matrix(1, 0, 0, 1, 0, 0)" xlink:href="#linear-gradient"/><linearGradient id="linear-gradient-9" x1="7.5" y1="21" x2="37.37" y2="21" gradientTransform="matrix(1, 0, 0, 1, 0, 0)" xlink:href="#linear-gradient"/><linearGradient id="linear-gradient-11" x1="7.5" y1="20.95" x2="11.06" y2="20.95" gradientTransform="matrix(1, 0, 0, 1, 0, 0)" xlink:href="#linear-gradient"/></defs><title>Icons</title><rect class="cls-1" x="7.5" y="16.58" width="3.56" height="8.75"/><path class="cls-1" d="M22.43,21.83A0.88,0.88,0,1,0,21.56,21a0.88,0.88,0,0,0,.88.88h0Zm0,0"/><path class="cls-1" d="M7.5,14.83h3.56v-3.5H33.81V30.58H11.06v-3.5H7.5v7h5.31v1.75h1.75V34.08H30.31v1.75h1.75V34.08h5.31V7.83H7.5v7Zm0,0"/><path class="cls-1" d="M23.31,16.67v1.82a2.63,2.63,0,1,1-1.75,0V16.67a4.38,4.38,0,1,0,1.75,0h0Zm0,0"/><path class="cls-1" d="M12.81,13.08V28.83H32.06V13.08H12.81Zm9.63,14A6.13,6.13,0,1,1,28.56,21a6.13,6.13,0,0,1-6.13,6.12h0Zm0,0"/><rect class="cls-2" x="7.5" y="16.58" width="3.56" height="8.75"/><path class="cls-2" d="M22.43,21.83A0.88,0.88,0,1,0,21.56,21a0.88,0.88,0,0,0,.88.88h0Zm0,0"/><path class="cls-3" d="M7.5,14.83h3.56v-3.5H33.81V30.58H11.06v-3.5H7.5v7h5.31v1.75h1.75V34.08H30.31v1.75h1.75V34.08h5.31V7.83H7.5v7Zm0,0"/><path class="cls-4" d="M23.31,16.67v1.82a2.63,2.63,0,1,1-1.75,0V16.67a4.38,4.38,0,1,0,1.75,0h0Zm0,0"/><path class="cls-2" d="M12.81,13.08V28.83H32.06V13.08H12.81Zm9.63,14A6.13,6.13,0,1,1,28.56,21a6.13,6.13,0,0,1-6.13,6.12h0Zm0,0"/><rect class="Graphic-Style-4" x="7.5" y="16.58" width="3.56" height="8.75"/><path class="Graphic-Style-4" d="M22.43,21.83A0.88,0.88,0,1,0,21.56,21a0.88,0.88,0,0,0,.88.88h0Zm0,0"/><path class="Graphic-Style-4" d="M7.5,14.83h3.56v-3.5H33.81V30.58H11.06v-3.5H7.5v7h5.31v1.75h1.75V34.08H30.31v1.75h1.75V34.08h5.31V7.83H7.5v7Zm0,0"/><path class="Graphic-Style-4" d="M23.31,16.67v1.82a2.63,2.63,0,1,1-1.75,0V16.67a4.38,4.38,0,1,0,1.75,0h0Zm0,0"/><path class="Graphic-Style-4" d="M12.81,13.08V28.83H32.06V13.08H12.81Zm9.63,14A6.13,6.13,0,1,1,28.56,21a6.13,6.13,0,0,1-6.13,6.12h0Zm0,0"/></svg>