<svg id="Layer_1" data-name="Layer 1" xmlns="http://www.w3.org/2000/svg" viewBox="0 0 26 26"><defs><style>.cls-1{fill:#939393;}</style></defs><title>Icons</title><path class="cls-1" d="M13.4,24.33a11.71,11.71,0,0,1-9.89-5.48,0.83,0.83,0,0,1-.06-0.94,7.24,7.24,0,0,1,5.5-4,1.22,1.22,0,0,1,.8.2A6.53,6.53,0,0,0,13,15.25a5.86,5.86,0,0,0,3.79-1A1.86,1.86,0,0,1,18.41,14a7.36,7.36,0,0,1,5,4,0.63,0.63,0,0,1,0,.69,11.59,11.59,0,0,1-7.74,5.4c-0.29.06-.59,0.12-0.89,0.15C14.32,24.27,13.86,24.3,13.4,24.33Z"/><path class="cls-1" d="M13.16,13.43a5.87,5.87,0,1,1,6.13-5.66A5.85,5.85,0,0,1,13.16,13.43Z"/></svg>