<svg id="Слой_1" data-name="Слой 1" xmlns="http://www.w3.org/2000/svg" viewBox="0 0 32 32"><title>BI_054_clock-512</title><path d="M9.06,26V24.13a2.27,2.27,0,0,0,.06-.25,14.76,14.76,0,0,1,.51-3A16,16,0,0,1,22.37,9.31c.58-.11,1.17-.17,1.76-.25H26l.24.06a14.48,14.48,0,0,1,4.81,1.11,15.8,15.8,0,0,1,9.76,12.08c.12.6.17,1.21.25,1.82V26a2,2,0,0,0-.05.24,14.68,14.68,0,0,1-1.13,4.84,15.8,15.8,0,0,1-12,9.73c-.61.12-1.23.17-1.85.25H24.13L23.89,41a14.33,14.33,0,0,1-4.11-.85A15.78,15.78,0,0,1,9.32,27.82C9.2,27.22,9.15,26.61,9.06,26Zm16,12.56A13.5,13.5,0,1,0,11.56,25,13.49,13.49,0,0,0,25.08,38.56Z" transform="translate(-9.06 -9.06)"/><path d="M23.81,20.18c0-1.62,0-3.23,0-4.84a1.24,1.24,0,0,1,1.69-1.19,1.25,1.25,0,0,1,.8,1.25c0,1.31,0,2.63,0,3.94,0,1.64,0,3.29,0,4.94a.62.62,0,0,0,.19.46L31,29.2a1.29,1.29,0,0,1,.44,1.23,1.25,1.25,0,0,1-2.12.63c-.55-.54-1.09-1.09-1.64-1.64l-3.34-3.33a1.59,1.59,0,0,1-.5-1.22C23.82,23.3,23.81,21.74,23.81,20.18Z" transform="translate(-9.06 -9.06)"/></svg>