<svg id="Layer_1" data-name="Layer 1" xmlns="http://www.w3.org/2000/svg" xmlns:xlink="http://www.w3.org/1999/xlink" viewBox="0 0 44 44"><defs><style>.Graphic-Style-4{fill:url(#linear-gradient);}</style><linearGradient id="linear-gradient" x1="21.65" y1="21.73" x2="36.18" y2="21.73" gradientUnits="userSpaceOnUse"><stop offset="0" stop-color="#6ed344"/><stop offset="1" stop-color="#6fbb9b"/></linearGradient></defs><title>Icons</title><path class="Graphic-Style-4" d="M21.65,32.8H36.18V10.65H21.65V32.8Zm0.94-12.54a0.47,0.47,0,0,1,.94,0v3a0.47,0.47,0,1,1-.94,0v-3Zm0,0"/><path class="Graphic-Style-4" d="M41.53,34.8H38.12V8.66H19.72V34.8H16.31a0.47,0.47,0,0,0,0,.94H41.53a0.47,0.47,0,0,0,0-.94h0Zm-4.41-1.46a0.47,0.47,0,0,1-.47.47H21.18a0.47,0.47,0,0,1-.47-0.47V10.19a0.47,0.47,0,0,1,.47-0.47H36.65a0.47,0.47,0,0,1,.47.47V33.33Zm0,0"/><path class="Graphic-Style-4" d="M13.4,11.05v4.26l-2.53,1.2-2.53-1.2V11.05a5.67,5.67,0,0,0-.1,10.1,2.71,2.71,0,0,0,0,.32v8.74a2.65,2.65,0,0,0,5.3,0V21.47a2.69,2.69,0,0,0,0-.32,5.67,5.67,0,0,0-.1-10.1h0Zm0,0"/></svg>