<svg width="23" height="23" viewBox="0 0 23 23" fill="none" xmlns="http://www.w3.org/2000/svg">
<path fill-rule="evenodd" clip-rule="evenodd" d="M22.5022 17.4734C22.4392 17.2814 22.0332 16.9984 21.2852 16.6244C21.0822 16.5074 20.7942 16.3474 20.4212 16.1444C20.0472 15.9414 19.7082 15.7544 19.4042 15.5834C19.0992 15.4134 18.8132 15.2474 18.5462 15.0874C18.5042 15.0554 18.3712 14.9624 18.1462 14.8064C17.9222 14.6524 17.7322 14.5374 17.5782 14.4634C17.4232 14.3884 17.2702 14.3504 17.1212 14.3504C16.9082 14.3504 16.6412 14.5024 16.3202 14.8064C16.0012 15.1104 15.7072 15.4424 15.4402 15.8004C15.1732 16.1584 14.8902 16.4884 14.5912 16.7924C14.2922 17.0984 14.0462 17.2494 13.8542 17.2494C13.7582 17.2494 13.6382 17.2224 13.4932 17.1704C13.3502 17.1164 13.2402 17.0714 13.1652 17.0334C13.0912 16.9964 12.9622 16.9214 12.7812 16.8094C12.6002 16.6964 12.4982 16.6354 12.4772 16.6244C11.0142 15.8134 9.75924 14.8844 8.71324 13.8384C7.66724 12.7914 6.73724 11.5374 5.92624 10.0744C5.91624 10.0524 5.85424 9.9514 5.74224 9.7704C5.63024 9.5884 5.55524 9.4594 5.51724 9.3854C5.48024 9.3104 5.43524 9.2004 5.38124 9.0564C5.32824 8.9124 5.30124 8.7924 5.30124 8.6964C5.30124 8.5054 5.45424 8.2594 5.75824 7.9594C6.06324 7.6614 6.39424 7.3784 6.75124 7.1114C7.10924 6.8444 7.43924 6.5504 7.74424 6.2314C8.04924 5.9104 8.20024 5.6434 8.20024 5.4294C8.20024 5.2804 8.16324 5.1274 8.08824 4.9734C8.01324 4.8184 7.89924 4.6284 7.74424 4.4044C7.58924 4.1804 7.49624 4.0474 7.46324 4.0034C7.30424 3.7374 7.13824 3.4514 6.96724 3.1474C6.79624 2.8434 6.61024 2.5034 6.40624 2.1304C6.20424 1.7564 6.04324 1.4674 5.92624 1.2654C5.55224 0.518401 5.27024 0.112401 5.07724 0.0484005C5.00324 0.0164005 4.89024 0.000400543 4.74124 0.000400543C4.45324 0.000400543 4.07724 0.0534005 3.61224 0.160401C3.14724 0.266401 2.78224 0.379401 2.51524 0.496401C1.98024 0.721401 1.41524 1.3714 0.817244 2.4504C0.272244 3.4534 0.000244141 4.4474 0.000244141 5.4294C0.000244141 5.7174 0.0182441 5.9974 0.0562441 6.2704C0.0932441 6.5424 0.160244 6.8504 0.256244 7.1914C0.352244 7.5334 0.430244 7.7874 0.488244 7.9524C0.547244 8.1174 0.656244 8.4134 0.817244 8.8404C0.977244 9.2684 1.07324 9.5294 1.10524 9.6264C1.47924 10.6724 1.92124 11.6064 2.43424 12.4284C3.27724 13.7954 4.42824 15.2084 5.88624 16.6654C7.34324 18.1224 8.75524 19.2734 10.1222 20.1164C10.9442 20.6294 11.8792 21.0734 12.9252 21.4464C13.0212 21.4784 13.2832 21.5744 13.7102 21.7344C14.1362 21.8944 14.4332 22.0044 14.5982 22.0624C14.7642 22.1224 15.0182 22.1994 15.3592 22.2964C15.7012 22.3914 16.0082 22.4584 16.2812 22.4954C16.5522 22.5334 16.8332 22.5524 17.1212 22.5524C18.1042 22.5524 19.0962 22.2794 20.1002 21.7354C21.1782 21.1374 21.8302 20.5714 22.0542 20.0374C22.1722 19.7704 22.2832 19.4044 22.3912 18.9404C22.4972 18.4754 22.5512 18.0994 22.5512 17.8114C22.5512 17.6614 22.5352 17.5494 22.5022 17.4734" fill="#6ECF53"/>
</svg>
